HIERARCHY
ROOT Hips
{
  OFFSET 0.000000 95.000000 0.000000
  CHANNELS 6 Xposition Yposition Zposition Zrotation Xrotation Yrotation
  JOINT Spine
  {
    OFFSET 0.000000 10.000000 0.000000
    CHANNELS 3 Zrotation Xrotation Yrotation
    JOINT Spine1
    {
      OFFSET 0.000000 12.000000 0.000000
      CHANNELS 3 Zrotation Xrotation Yrotation
      JOINT Spine2
      {
        OFFSET 0.000000 12.000000 0.000000
        CHANNELS 3 Zrotation Xrotation Yrotation
        JOINT Neck
        {
          OFFSET 0.000000 10.000000 0.000000
          CHANNELS 3 Zrotation Xrotation Yrotation
          JOINT Head
          {
            OFFSET 0.000000 8.000000 0.000000
            CHANNELS 3 Zrotation Xrotation Yrotation
            End Site
            {
              OFFSET 0.000000 10.000000 0.000000
            }
          }
        }
        JOINT LeftShoulder
        {
          OFFSET 6.000000 8.000000 0.000000
          CHANNELS 3 Zrotation Xrotation Yrotation
          JOINT LeftArm
          {
            OFFSET 12.000000 0.000000 0.000000
            CHANNELS 3 Zrotation Xrotation Yrotation
            JOINT LeftForeArm
            {
              OFFSET 24.000000 0.000000 0.000000
              CHANNELS 3 Zrotation Xrotation Yrotation
              JOINT LeftHand
              {
                OFFSET 22.000000 0.000000 0.000000
                CHANNELS 3 Zrotation Xrotation Yrotation
                JOINT LeftHandThumb1
                {
                  OFFSET 1.800000 -1.400000 0.500000
                  CHANNELS 3 Zrotation Xrotation Yrotation
                  JOINT LeftHandThumb2
                  {
                    OFFSET 2.400000 0.000000 0.000000
                    CHANNELS 3 Zrotation Xrotation Yrotation
                    JOINT LeftHandThumb3
                    {
                      OFFSET 1.900000 0.000000 0.000000
                      CHANNELS 3 Zrotation Xrotation Yrotation
                      End Site
                      {
                        OFFSET 1.600000 0.000000 0.000000
                      }
                    }
                  }
                }
                JOINT LeftHandIndex1
                {
                  OFFSET 6.600000 1.200000 0.300000
                  CHANNELS 3 Zrotation Xrotation Yrotation
                  JOINT LeftHandIndex2
                  {
                    OFFSET 2.000000 0.000000 0.000000
                    CHANNELS 3 Zrotation Xrotation Yrotation
                    JOINT LeftHandIndex3
                    {
                      OFFSET 1.200000 0.000000 0.000000
                      CHANNELS 3 Zrotation Xrotation Yrotation
                      End Site
                      {
                        OFFSET 1.000000 0.000000 0.000000
                      }
                    }
                  }
                }
                JOINT LeftHandMiddle1
                {
                  OFFSET 7.200000 0.000000 0.300000
                  CHANNELS 3 Zrotation Xrotation Yrotation
                  JOINT LeftHandMiddle2
                  {
                    OFFSET 3.000000 0.000000 0.000000
                    CHANNELS 3 Zrotation Xrotation Yrotation
                    JOINT LeftHandMiddle3
                    {
                      OFFSET 2.000000 0.000000 0.000000
                      CHANNELS 3 Zrotation Xrotation Yrotation
                      End Site
                      {
                        OFFSET 1.600000 0.000000 0.000000
                      }
                    }
                  }
                }
                JOINT LeftHandRing1
                {
                  OFFSET 7.100000 -1.000000 0.400000
                  CHANNELS 3 Zrotation Xrotation Yrotation
                  JOINT LeftHandRing2
                  {
                    OFFSET 2.600000 0.000000 0.000000
                    CHANNELS 3 Zrotation Xrotation Yrotation
                    JOINT LeftHandRing3
                    {
                      OFFSET 1.600000 0.000000 0.000000
                      CHANNELS 3 Zrotation Xrotation Yrotation
                      End Site
                      {
                        OFFSET 1.300000 0.000000 0.000000
                      }
                    }
                  }
                }
                JOINT LeftHandPinky1
                {
                  OFFSET 6.500000 -2.000000 0.500000
                  CHANNELS 3 Zrotation Xrotation Yrotation
                  JOINT LeftHandPinky2
                  {
                    OFFSET 1.900000 0.000000 0.000000
                    CHANNELS 3 Zrotation Xrotation Yrotation
                    JOINT LeftHandPinky3
                    {
                      OFFSET 1.400000 0.000000 0.000000
                      CHANNELS 3 Zrotation Xrotation Yrotation
                      End Site
                      {
                        OFFSET 1.300000 0.000000 0.000000
                      }
                    }
                  }
                }
              }
            }
          }
        }
        JOINT RightShoulder
        {
          OFFSET -6.000000 8.000000 0.000000
          CHANNELS 3 Zrotation Xrotation Yrotation
          JOINT RightArm
          {
            OFFSET -12.000000 0.000000 0.000000
            CHANNELS 3 Zrotation Xrotation Yrotation
            JOINT RightForeArm
            {
              OFFSET -24.000000 0.000000 0.000000
              CHANNELS 3 Zrotation Xrotation Yrotation
              JOINT RightHand
              {
                OFFSET -22.000000 0.000000 0.000000
                CHANNELS 3 Zrotation Xrotation Yrotation
                JOINT RightHandThumb1
                {
                  OFFSET -1.800000 -1.400000 0.500000
                  CHANNELS 3 Zrotation Xrotation Yrotation
                  JOINT RightHandThumb2
                  {
                    OFFSET -2.400000 0.000000 0.000000
                    CHANNELS 3 Zrotation Xrotation Yrotation
                    JOINT RightHandThumb3
                    {
                      OFFSET -1.900000 0.000000 0.000000
                      CHANNELS 3 Zrotation Xrotation Yrotation
                      End Site
                      {
                        OFFSET -1.600000 0.000000 0.000000
                      }
                    }
                  }
                }
                JOINT RightHandIndex1
                {
                  OFFSET -6.600000 1.200000 0.300000
                  CHANNELS 3 Zrotation Xrotation Yrotation
                  JOINT RightHandIndex2
                  {
                    OFFSET -2.000000 0.000000 0.000000
                    CHANNELS 3 Zrotation Xrotation Yrotation
                    JOINT RightHandIndex3
                    {
                      OFFSET -1.200000 0.000000 0.000000
                      CHANNELS 3 Zrotation Xrotation Yrotation
                      End Site
                      {
                        OFFSET -1.000000 0.000000 0.000000
                      }
                    }
                  }
                }
                JOINT RightHandMiddle1
                {
                  OFFSET -7.200000 0.000000 0.300000
                  CHANNELS 3 Zrotation Xrotation Yrotation
                  JOINT RightHandMiddle2
                  {
                    OFFSET -3.000000 0.000000 0.000000
                    CHANNELS 3 Zrotation Xrotation Yrotation
                    JOINT RightHandMiddle3
                    {
                      OFFSET -2.000000 0.000000 0.000000
                      CHANNELS 3 Zrotation Xrotation Yrotation
                      End Site
                      {
                        OFFSET -1.600000 0.000000 0.000000
                      }
                    }
                  }
                }
                JOINT RightHandRing1
                {
                  OFFSET -7.100000 -1.000000 0.400000
                  CHANNELS 3 Zrotation Xrotation Yrotation
                  JOINT RightHandRing2
                  {
                    OFFSET -2.600000 0.000000 0.000000
                    CHANNELS 3 Zrotation Xrotation Yrotation
                    JOINT RightHandRing3
                    {
                      OFFSET -1.600000 0.000000 0.000000
                      CHANNELS 3 Zrotation Xrotation Yrotation
                      End Site
                      {
                        OFFSET -1.300000 0.000000 0.000000
                      }
                    }
                  }
                }
                JOINT RightHandPinky1
                {
                  OFFSET -6.500000 -2.000000 0.500000
                  CHANNELS 3 Zrotation Xrotation Yrotation
                  JOINT RightHandPinky2
                  {
                    OFFSET -1.900000 0.000000 0.000000
                    CHANNELS 3 Zrotation Xrotation Yrotation
                    JOINT RightHandPinky3
                    {
                      OFFSET -1.400000 0.000000 0.000000
                      CHANNELS 3 Zrotation Xrotation Yrotation
                      End Site
                      {
                        OFFSET -1.300000 0.000000 0.000000
                      }
                    }
                  }
                }
              }
            }
          }
        }
      }
    }
  }
  JOINT LeftUpLeg
  {
    OFFSET 10.000000 -5.000000 0.000000
    CHANNELS 3 Zrotation Xrotation Yrotation
    JOINT LeftLeg
    {
      OFFSET 0.000000 -42.000000 0.000000
      CHANNELS 3 Zrotation Xrotation Yrotation
      JOINT LeftFoot
      {
        OFFSET 0.000000 -42.000000 4.000000
        CHANNELS 3 Zrotation Xrotation Yrotation
        End Site
        {
          OFFSET 0.000000 0.000000 12.000000
        }
      }
    }
  }
  JOINT RightUpLeg
  {
    OFFSET -10.000000 -5.000000 0.000000
    CHANNELS 3 Zrotation Xrotation Yrotation
    JOINT RightLeg
    {
      OFFSET 0.000000 -42.000000 0.000000
      CHANNELS 3 Zrotation Xrotation Yrotation
      JOINT RightFoot
      {
        OFFSET 0.000000 -42.000000 4.000000
        CHANNELS 3 Zrotation Xrotation Yrotation
        End Site
        {
          OFFSET 0.000000 0.000000 12.000000
        }
      }
    }
  }
}
MOTION
Frames: 4
Frame Time: 0.033333
0.0000 95.0000 0.0000 0.0000 0.0000 0.0000 0.0000 0.0000 0.0000 0.0000 0.0000 0.0000 0.0000 0.0000 0.0000 0.0000 0.0000 0.0000 0.0000 0.0000 0.0000 0.0000 0.0000 0.0000 -85.5320 7.6326 8.2503 5.3605 2.8137 -3.4902 -171.0497 -6.5481 171.7630 50.2425 -9.1186 8.5448 11.9908 0.0000 0.0000 4.6804 0.0000 0.0000 -9.0452 0.2069 1.9689 110.0000 0.0000 0.0000 25.2006 0.0000 0.0000 2.6873 -0.0886 -0.9949 110.0000 0.0000 0.0000 50.3551 0.0000 0.0000 12.7894 -0.7613 -1.7521 110.0000 0.0000 0.0000 44.0011 0.0000 0.0000 21.9349 -1.9481 -3.1629 106.3596 0.0000 0.0000 48.7725 0.0000 0.0000 0.0000 0.0000 0.0000 75.6205 -28.0447 35.6813 -169.8047 16.8948 -63.3923 222.0589 -65.6045 480.6034 -38.3552 -6.5928 -6.4796 16.5064 0.0000 0.0000 12.5845 0.0000 0.0000 0.9096 -0.8576 -5.1637 3.7668 0.0000 0.0000 1.8915 0.0000 0.0000 -12.6181 -1.2342 -6.3560 1.7447 0.0000 0.0000 5.9820 0.0000 0.0000 6.7602 -0.6439 5.1064 110.0000 0.0000 0.0000 31.4306 0.0000 0.0000 21.6587 -5.3915 13.5908 72.2277 0.0000 0.0000 16.9847 0.0000 0.0000 0.0000 0.0000 0.0000 0.0000 0.0000 0.0000 0.0000 0.0000 0.0000 0.0000 0.0000 0.0000 0.0000 0.0000 0.0000 0.0000 0.0000 0.0000
0.0000 95.0000 0.0000 0.0000 0.0000 0.0000 0.0000 0.0000 0.0000 0.0000 0.0000 0.0000 0.0000 0.0000 0.0000 0.0000 0.0000 0.0000 0.0000 0.0000 0.0000 0.0000 0.0000 0.0000 -85.2098 7.8092 8.4885 5.0328 2.8445 -3.5281 -170.7587 -6.6721 172.3814 49.6809 -8.9524 8.6313 15.5261 0.0000 0.0000 2.3700 0.0000 0.0000 -6.8953 0.0574 2.1038 35.8654 0.0000 0.0000 84.9902 0.0000 0.0000 3.9800 -0.1618 -0.1185 49.5854 0.0000 0.0000 78.5051 0.0000 0.0000 13.7854 -0.7910 -1.2304 77.8226 0.0000 0.0000 66.9167 0.0000 0.0000 21.7840 -1.8730 -2.5244 72.4753 0.0000 0.0000 71.2206 0.0000 0.0000 0.0000 0.0000 0.0000 76.9835 -28.0944 34.9314 -171.0337 16.6388 -63.8697 213.3416 -66.9432 489.4019 -41.2444 -7.3190 -6.5202 10.0565 0.0000 0.0000 3.3649 0.0000 0.0000 3.8411 -0.3895 -3.8154 4.5916 0.0000 0.0000 4.4001 0.0000 0.0000 -3.4725 -0.1560 -0.3715 6.7811 0.0000 0.0000 9.0365 0.0000 0.0000 5.6938 -1.0425 7.1266 110.0000 0.0000 0.0000 19.0862 0.0000 0.0000 17.9433 -5.7198 14.7283 83.9247 0.0000 0.0000 25.3199 0.0000 0.0000 0.0000 0.0000 0.0000 0.0000 0.0000 0.0000 0.0000 0.0000 0.0000 0.0000 0.0000 0.0000 0.0000 0.0000 0.0000 0.0000 0.0000 0.0000
0.0000 95.0000 0.0000 0.0000 0.0000 0.0000 0.0000 0.0000 0.0000 0.0000 0.0000 0.0000 0.0000 0.0000 0.0000 0.0000 0.0000 0.0000 0.0000 0.0000 0.0000 0.0000 0.0000 0.0000 -85.2466 7.9011 8.5830 5.3291 2.8737 -3.5885 -170.8684 -7.8762 171.8538 48.1827 -8.3974 9.3101 12.5892 0.0000 0.0000 5.3291 0.0000 0.0000 -6.5024 -0.0468 2.7440 39.9315 0.0000 0.0000 89.4695 0.0000 0.0000 4.3027 -0.1702 -0.2423 60.3306 0.0000 0.0000 82.8007 0.0000 0.0000 14.7181 -0.8299 -0.9955 101.6729 0.0000 0.0000 52.4401 0.0000 0.0000 23.9747 -1.9237 -1.8916 94.6852 0.0000 0.0000 56.1749 0.0000 0.0000 0.0000 0.0000 0.0000 77.3444 -28.0037 34.6104 -171.7440 16.1186 -63.7548 217.4059 -78.5953 488.2199 -49.7090 -8.4401 -10.9944 8.1468 0.0000 0.0000 14.6567 0.0000 0.0000 3.2316 0.2676 0.7953 2.0727 0.0000 0.0000 2.6855 0.0000 0.0000 -1.6650 0.0300 6.8394 77.7339 0.0000 0.0000 90.0000 0.0000 0.0000 2.0550 -2.3697 15.6360 110.0000 0.0000 0.0000 16.4526 0.0000 0.0000 2.3098 -7.1707 22.3515 110.0000 0.0000 0.0000 28.8957 0.0000 0.0000 0.0000 0.0000 0.0000 0.0000 0.0000 0.0000 0.0000 0.0000 0.0000 0.0000 0.0000 0.0000 0.0000 0.0000 0.0000 0.0000 0.0000 0.0000
0.0000 95.0000 0.0000 0.0000 0.0000 0.0000 0.0000 0.0000 0.0000 0.0000 0.0000 0.0000 0.0000 0.0000 0.0000 0.0000 0.0000 0.0000 0.0000 0.0000 0.0000 0.0000 0.0000 0.0000 -85.0967 8.1086 8.8313 5.2878 3.2730 -4.0085 -170.3338 -4.6864 172.0227 48.4634 -8.6378 8.6005 9.3555 0.0000 0.0000 5.1866 0.0000 0.0000 -6.6990 0.0942 1.7012 59.2370 0.0000 0.0000 90.0000 0.0000 0.0000 4.1150 -0.1391 -0.9021 90.9991 0.0000 0.0000 64.4010 0.0000 0.0000 13.6645 -0.7995 -1.9115 99.6256 0.0000 0.0000 55.0125 0.0000 0.0000 21.2069 -1.8836 -2.8689 93.2821 0.0000 0.0000 59.4684 0.0000 0.0000 0.0000 0.0000 0.0000 77.3442 -27.8281 34.3980 -172.0362 16.3043 -63.6920 229.5958 -80.6234 477.7449 -51.4817 -9.1610 -9.9390 8.7736 0.0000 0.0000 13.0391 0.0000 0.0000 1.4700 0.4628 2.3518 2.6408 0.0000 0.0000 3.3901 0.0000 0.0000 -5.1161 0.0396 5.6586 12.1838 0.0000 0.0000 13.7465 0.0000 0.0000 -0.5875 -2.0315 14.7642 110.0000 0.0000 0.0000 24.1794 0.0000 0.0000 1.0193 -6.2137 19.9028 84.9239 0.0000 0.0000 35.7788 0.0000 0.0000 0.0000 0.0000 0.0000 0.0000 0.0000 0.0000 0.0000 0.0000 0.0000 0.0000 0.0000 0.0000 0.0000 0.0000 0.0000 0.0000 0.0000 0.0000
